<svg xmlns="http://www.w3.org/2000/svg" viewBox="0 0 80 80"><path d="M50 7a23.01 23.01 0 0 0-18.53 36.61l-4.24 4.25a3 3 0 0 0-3.18.68L7.88 64.7a3.01 3.01 0 0 0 0 4.24l3.17 3.17a3.01 3.01 0 0 0 4.24 0l16.17-16.17a3 3 0 0 0 .68-3.18l4.25-4.24A23.01 23.01 0 0 0 73 30C73 17.3 62.7 7 50 7Zm0 2c11.6 0 21 9.4 21 21s-9.4 21-21 21-21-9.4-21-21S38.4 9 50 9Zm0 2a1 1 0 0 0 0 2 1 1 0 0 0 0-2Zm-4.65.61h-.07l-.2.04a1 1 0 1 0 .27-.04Zm9.3 0a1 1 0 1 0 0 2 1 1 0 0 0 0-2Zm-13.67 1.8a.98.98 0 0 0-.48.14.99.99 0 0 0-.37 1.36 1 1 0 0 0 .61.47 1 1 0 1 0 .23-1.97Zm17.97 0a1 1 0 1 0 .1 2 1 1 0 0 0-.1-2ZM37.3 16.27a1.01 1.01 0 0 0-.72 1.71c.38.39 1.02.39 1.41 0 .39-.39.39-1.03 0-1.42a1.01 1.01 0 0 0-.7-.29Zm25.45 0a1 1 0 1 0-.03 2 1 1 0 0 0 .03-2ZM65.56 20a1 1 0 0 0-.84 1.5 1 1 0 0 0 1.73-1 1 1 0 0 0-.89-.5Zm-31.2 0c-.33.02-.64.2-.81.5a1 1 0 0 0 1.73 1 1 1 0 0 0-.37-1.36 1 1 0 0 0-.55-.14Zm-1.75 4.34a1 1 0 1 0 0 2 1 1 0 0 0 0-2Zm34.78 0h-.07c-.06 0-.13.02-.2.04a1 1 0 1 0 .27-.04ZM32 29a1 1 0 0 0 0 2 1 1 0 0 0 0-2Zm36 0a1 1 0 0 0 0 2 1 1 0 0 0 0-2Zm-35.35 4.66c-.1 0-.2 0-.3.03a1 1 0 1 0 .3-.03Zm34.73 0a1 1 0 0 0-.96.74.99.99 0 0 0 .7 1.23 1 1 0 1 0 .25-1.97Zm-33 4.34c-.16 0-.32.05-.47.13-.23.14-.4.35-.46.61a.97.97 0 0 0 .1.76c.13.23.34.4.6.46.26.08.53.04.76-.1a1 1 0 0 0 .37-1.36 1 1 0 0 0-.9-.5Zm31.16 0a1 1 0 0 0-.92 1.26 1 1 0 1 0 .92-1.26ZM37.3 41.73c-.27 0-.54.1-.73.29-.38.39-.38 1.03 0 1.42.4.38 1.03.38 1.42 0 .39-.4.39-1.03 0-1.42a1 1 0 0 0-.7-.29Zm25.45 0c-.27 0-.53.1-.72.29a1 1 0 0 0 0 1.42 1 1 0 0 0 1.41 0 1 1 0 0 0 0-1.42 1 1 0 0 0-.69-.29Zm-3.77 2.86a1 1 0 1 0 .05 2 1 1 0 0 0-.05-2Zm-18.02 0a.99.99 0 0 0-.82.5 1 1 0 0 0 .37 1.36c.23.14.5.17.76.1a.97.97 0 0 0 .6-.46c.14-.23.18-.5.1-.76a1 1 0 0 0-1.01-.74Zm-8.22.59a23.9 23.9 0 0 0 2.09 2.09l-3.9 3.9-2.08-2.1Zm12.6 1.21a1 1 0 1 0 .02 2 1 1 0 0 0-.02-2Zm9.37 0c-.1 0-.2 0-.3.03a1 1 0 1 0 .3-.03ZM50 47a1 1 0 0 0 0 2 1 1 0 0 0 0-2Zm-23.83 2.65c.26 0 .5.1.7.3l3.18 3.17c.4.4.4 1.02 0 1.42L13.88 70.7c-.4.4-1.02.4-1.42 0L9.3 67.54a.99.99 0 0 1 0-1.42l1.71-1.7 2.3 2.29 1.4-1.42L12.42 63 14 61.41l2.3 2.3 1.4-1.42L15.42 60 17 58.41l2.3 2.3 1.4-1.42L18.42 57 20 55.41l2.3 2.3 1.4-1.42L21.42 54 23 52.41l2.3 2.3 1.4-1.42L24.42 51l1.05-1.05a1 1 0 0 1 .71-.3Z"/></svg>