<svg viewBox="0 0 601 117" fill="none" xmlns="http://www.w3.org/2000/svg"><path d="M193.4 36.4c-12.2 0-21.8 10.4-21.8 23.8 0 13.3 9.6 23.7 21.8 23.7 6.3 0 12.1-2.8 16.3-8 .3-.4.8-.4 1.2-.1l6.8 5.4c.4.3.4.8.1 1.2-6 7.7-15 12.2-24.7 12.2-17.9 0-32.4-15.4-32.4-34.4s14.6-34.4 32.4-34.4c9.7 0 18.7 4.4 24.7 12.2.3.4.2.9-.1 1.2l-6.8 5.5c-.4.3-.9.2-1.2-.1-4.1-5.3-9.9-8.2-16.3-8.2Zm45.2-12.6H227c-.6 0-1.1.4-1.1.8v68.1c0 .5.5.8 1.1.8h11.6c.6 0 1.1-.4 1.1-.8V24.6c.1-.4-.4-.8-1.1-.8Zm39.5 47.1c0-7.7-5.4-13.4-12.6-13.4-7.1 0-12.5 5.8-12.5 13.4 0 7.8 5.4 13.7 12.5 13.7 7.2 0 12.6-5.9 12.6-13.7Zm-12.6-23.5c13.1 0 23 10.1 23 23.5 0 13.5-9.9 23.8-23 23.8s-22.9-10.2-22.9-23.8c-.1-15.4 11.5-23.5 22.9-23.5Zm69.3 1h-8.6c-.5 0-.8.4-.8.8V72c0 8.9-6.2 12.1-11.4 12.1-4.7 0-9.4-3.5-9.4-11.4V49.2c0-.5-.4-.8-.8-.8h-8.6c-.5 0-.9.4-.9.8v24.6c0 13.5 6.1 20.9 17.2 20.9 4 0 10.6-2.3 13-7.4l.8.2v5.3c0 .5.4.8.8.8h8.6c.5 0 .8-.4.8-.8V49.2c.1-.4-.3-.8-.7-.8Zm43.1 22.5c0-8.3-6.7-13.4-12.9-13.4-7 0-12.5 5.9-12.5 13.4 0 7.6 5.5 13.6 12.5 13.6 6.3 0 12.9-5.1 12.9-13.6Zm9.6-47.1c.5 0 .8.4.8.8v68.1c0 .5-.4.8-.8.8h-8.6c-.5 0-.8-.4-.8-.8v-6.1l-.5.9c-3.2 5.2-9.7 7-14.3 7-12.1 0-21.2-10.2-21.2-23.7 0-15.5 10.6-23.6 21.1-23.6 6.1 0 11.7 2.7 14.3 6.9l.5.8V24.4c0-.5.4-.8.8-.8h8.7v.2Zm24.8 24.6h-11.6c-.6 0-1.1.4-1.1.8v43.6c0 .5.5.8 1.1.8h11.6c.6 0 1.1-.4 1.1-.8V49.2c.1-.4-.4-.8-1.1-.8Zm-7.4-23.2c-3.9 0-7 3-7 6.9 0 3.8 3.1 6.9 7 6.9s6.9-3 6.9-6.9c0-3.9-3-6.9-6.9-6.9Zm40.3 22.2c-3.8 0-10.5 2-13 7.4l-.8-.2v-5.4c0-.5-.4-.8-.8-.8H422c-.5 0-.8.4-.8.8v43.6c0 .5.4.8.8.8h8.6c.5 0 .8-.4.8-.8V70c0-8.8 6.2-12 11.4-12 4.7 0 9.4 3.5 9.4 11.3v23.5c0 .5.4.8.8.8h8.6c.5 0 .8-.4.8-.8V68.2c0-13.4-6.1-20.8-17.2-20.8Zm58.9 23.5c0-8.3-6.7-13.4-12.9-13.4-7 0-12.5 5.9-12.5 13.4 0 7.6 5.5 13.6 12.5 13.6 6.4 0 12.9-5.1 12.9-13.6Zm9.7-22.5c.5 0 .8.4.8.8v43.6c0 .5-.4.8-.8.8h-8.6c-.5 0-.8-.4-.8-.8v-6.1l-.5.9c-3.2 5.2-9.7 7-14.3 7-12.1 0-21.2-10.2-21.2-23.7 0-15.5 10.6-23.6 21.1-23.6 6.1 0 11.7 2.7 14.3 6.9l.5.8v-5.9c0-.5.4-.8.8-.8h8.7v.1Zm39.2.1c-1.6-.7-3.9-1.1-6.2-1.1-5.7 0-9.9 3.4-12 9.9l-.8-.1v-8c0-.5-.4-.8-.8-.8h-8.6c-.5 0-.8.4-.8.8v43.6c0 .5.4.8.8.8h8.7c.5 0 .8-.4.8-.8V77.9c0-17.8 7.1-20.4 11.3-20.4 1.8 0 3.5.4 5.2 1.1.2.1.5.1.7 0 .2-.1.4-.3.4-.6l1.7-8.5c.1-.4-.1-.8-.4-1Zm47.7.3c-.2-.2-.4-.4-.7-.4h-9.3c-.3 0-.7.2-.8.5l-11.2 29-11.3-29c-.1-.3-.4-.5-.8-.5h-9.4c-.3 0-.5.1-.7.4-.2.2-.2.5-.1.8l16.8 41.3-9.3 24.1c-.1.3-.1.5.1.8.2.2.4.4.7.4h9c.3 0 .7-.2.8-.5l26.2-66c.1-.4.1-.7 0-.9ZM118.3 33.7C112.1 14 93.4 0 72.5 0 54.7 0 38.7 9.5 30.3 25 13.5 28 .8 43 .8 60.2c0 14 8.2 26.9 20.9 32.7l.9.4V83.1A26.95 26.95 0 0 1 9.9 60.2a26.9 26.9 0 0 1 23.9-26.5l2.5-.3 1.1-2.3C43.9 17.5 57.4 9 72.5 9c17.8 0 33.8 12.6 37.9 30l.8 3.5 3.5.1c12 .2 21.8 10.1 21.8 22.1 0 8.5-4.9 15.4-13.2 18.9v9.7l.6-.2c13.4-4.4 21.7-15.2 21.7-28.4 0-15.8-12-29-27.3-31ZM54.9 92.1a7.36 7.36 0 0 1-2.1-5.1V57c0-.2.2-.4.4-.4h3.4c.4 0 .5-.4.3-.7L43.6 42.6c-.2-.2-.4-.2-.6 0L29.6 56c-.3.2-.1.7.3.7h3.4c.2 0 .4.2.4.4v30.6c0 4 3.2 7.2 7.1 7.2h15.7c.4 0 .5-.4.3-.7l-1.9-2.1Zm29.5 0a7.36 7.36 0 0 1-2.1-5.1V64.7c0-.2.2-.4.4-.4h3.4c.4 0 .5-.4.3-.7L73 50.3c-.2-.2-.4-.2-.6 0L59.1 63.6c-.3.2-.1.7.3.7h3.4c.2 0 .4.2.4.4v22.9c0 4 3.2 7.2 7.2 7.2h15.7c.4 0 .5-.4.3-.7l-2-2Zm29.5 0a7.36 7.36 0 0 1-2.1-5.1V72.4c0-.2.2-.4.4-.4h3.4c.4 0 .5-.4.3-.7L102.5 58c-.2-.2-.4-.2-.6 0L88.6 71.3c-.3.3-.1.7.3.7h3.4c.2 0 .4.2.4.4v15.2c0 4 3.2 7.2 7.2 7.2h15.7c.4 0 .5-.4.3-.7l-2-2Z" fill="#3448C5"/></svg>