<svg width="140" height="32" fill="none" xmlns="http://www.w3.org/2000/svg"><path d="M37.9 21.28A5.16 5.16 0 0 1 32.6 16a5.14 5.14 0 0 1 5.3-5.28 5.14 5.14 0 0 1 4.52 2.56L39.8 14.8c-.36-.75-1-1.12-1.94-1.12-.65 0-1.2.22-1.62.66-.43.43-.64.98-.64 1.66 0 .68.21 1.24.64 1.68.43.43.97.64 1.62.64.95 0 1.6-.37 1.94-1.12l2.62 1.5a5.18 5.18 0 0 1-4.52 2.58Zm8.83-8.5c.18-.64.55-1.13 1.12-1.46.57-.35 1.2-.52 1.88-.52v3.4a3 3 0 0 0-2.06.38c-.63.36-.95 1-.95 1.9V21h-3V11h3v1.78Zm7.16-3.18c-.35.35-.77.52-1.26.52a1.78 1.78 0 0 1-1.8-1.8c0-.5.17-.91.52-1.26.36-.36.78-.54 1.28-.54s.91.18 1.26.54c.36.35.54.77.54 1.26 0 .5-.18.92-.54 1.28ZM51.13 21V11h3v10h-3Zm7.93-7.08c0 .2.17.37.5.5.35.12.77.25 1.24.38.48.12.97.28 1.45.48.48.2.88.53 1.22 1 .34.45.52 1.03.52 1.72 0 1.08-.4 1.9-1.2 2.46-.8.55-1.8.82-2.96.82-2.11 0-3.55-.8-4.3-2.38l2.6-1.48c.26.79.83 1.18 1.7 1.18.72 0 1.08-.2 1.08-.62 0-.2-.18-.37-.52-.5a9.61 9.61 0 0 0-1.23-.38c-.47-.13-.95-.3-1.43-.5-.48-.21-.9-.54-1.24-.98a2.6 2.6 0 0 1-.5-1.62c0-1.04.37-1.85 1.11-2.42.77-.57 1.7-.86 2.8-.86.83 0 1.59.19 2.27.56.67.36 1.22.89 1.63 1.58l-2.55 1.38c-.33-.59-.77-.88-1.34-.88-.56 0-.84.19-.84.56Zm11.99-.04h-2.06v3.54c0 .4.16.65.48.76.32.1.85.14 1.58.1V21c-1.9.2-3.23.02-3.96-.54-.73-.57-1.1-1.59-1.1-3.04v-3.54h-1.6V11h1.6V9.1l3-.9V11h2.06v2.88ZM75.7 9.6c-.34.35-.76.52-1.26.52a1.78 1.78 0 0 1-1.8-1.8c0-.5.18-.91.52-1.26.36-.36.79-.54 1.28-.54.5 0 .92.18 1.26.54.36.35.54.77.54 1.26 0 .5-.18.92-.54 1.28ZM72.94 21V11h3v10h-3ZM85.9 11h3v10h-3v-.94c-.7.81-1.7 1.22-2.98 1.22-1.32 0-2.45-.5-3.38-1.52a5.39 5.39 0 0 1-1.4-3.76c0-1.48.47-2.73 1.4-3.74a4.4 4.4 0 0 1 3.38-1.54c1.28 0 2.27.4 2.98 1.22V11Zm-4.1 6.78c.44.44 1.01.66 1.72.66.7 0 1.28-.22 1.72-.66A2.4 2.4 0 0 0 85.9 16a2.4 2.4 0 0 0-.66-1.78 2.33 2.33 0 0 0-1.72-.66c-.7 0-1.28.22-1.72.66a2.4 2.4 0 0 0-.66 1.78c0 .75.22 1.34.66 1.78Zm15.66-7.06c1.07 0 1.95.37 2.66 1.1a4.15 4.15 0 0 1 1.08 3.04V21h-3v-5.7c0-.59-.17-1.03-.5-1.34a1.68 1.68 0 0 0-1.24-.48 1.8 1.8 0 0 0-1.36.52c-.33.35-.5.86-.5 1.54V21h-3V11h3v.94c.6-.81 1.55-1.22 2.86-1.22Zm9.14 3.2c0 .2.17.37.5.5.35.12.76.25 1.24.38.48.12.96.28 1.44.48.48.2.89.53 1.22 1 .35.45.52 1.03.52 1.72 0 1.08-.4 1.9-1.2 2.46-.8.55-1.79.82-2.96.82-2.1 0-3.54-.8-4.3-2.38l2.6-1.48c.27.79.83 1.18 1.7 1.18.72 0 1.08-.2 1.08-.62 0-.2-.17-.37-.52-.5a9.6 9.6 0 0 0-1.22-.38c-.48-.13-.96-.3-1.44-.5-.48-.21-.9-.54-1.24-.98a2.6 2.6 0 0 1-.5-1.62c0-1.04.37-1.85 1.12-2.42.76-.57 1.7-.86 2.8-.86.83 0 1.58.19 2.26.56.68.36 1.23.89 1.64 1.58l-2.56 1.38c-.32-.59-.77-.88-1.34-.88-.56 0-.84.19-.84.56Zm15.18 5.84a5.15 5.15 0 0 1-3.76 1.52c-1.48 0-2.74-.5-3.76-1.52a5.11 5.11 0 0 1-1.54-3.76c0-1.48.5-2.73 1.54-3.74a5.11 5.11 0 0 1 3.76-1.54c1.48 0 2.73.51 3.76 1.54a5.05 5.05 0 0 1 1.54 3.74c0 1.48-.52 2.73-1.54 3.76Zm-5.4-2.06c.44.44.98.66 1.64.66.65 0 1.2-.22 1.64-.66.44-.44.66-1 .66-1.7s-.22-1.26-.66-1.7a2.23 2.23 0 0 0-1.64-.66c-.66 0-1.2.22-1.64.66-.44.44-.66 1-.66 1.7s.22 1.26.66 1.7Zm14.53-8.1c-1.24-.1-1.86.36-1.86 1.4h1.86v2.88h-1.86V21h-3v-7.12h-1.34V11h1.34c0-1.44.4-2.53 1.22-3.28.82-.76 2.03-1.1 3.64-1V9.6Zm8.06 4.28h-2.06v3.54c0 .4.16.65.48.76.32.1.84.14 1.58.1V21c-1.91.2-3.23.02-3.96-.54-.74-.57-1.1-1.59-1.1-3.04v-3.54h-1.6V11h1.6V9.1l3-.9V11h2.06v2.88Z" fill="#0D0D12"/><path d="M10.13 20.78a6.75 6.75 0 0 1-1.45-7.37c.34-.82.83-1.56 1.45-2.19a2.65 2.65 0 0 0-.84-4.3 2.58 2.58 0 0 0-2.84.57A12.27 12.27 0 0 0 3 16a12.48 12.48 0 0 0 3.45 8.51 2.59 2.59 0 0 0 4.25-.85 2.67 2.67 0 0 0-.57-2.87Z" fill="#5FCEA4"/><path d="M10.13 11.22a6.66 6.66 0 0 1 7.27-1.46c.81.34 1.55.83 2.17 1.46a2.59 2.59 0 0 0 3.68 0 2.65 2.65 0 0 0 0-3.72 11.96 11.96 0 0 0-8.4-3.5 12.16 12.16 0 0 0-8.4 3.5 2.65 2.65 0 0 0 0 3.72 2.59 2.59 0 0 0 3.68 0Z" fill="#F8DB53"/><path d="M19.57 20.78a6.66 6.66 0 0 1-7.27 1.46 6.66 6.66 0 0 1-2.17-1.46 2.59 2.59 0 0 0-3.68 0 2.65 2.65 0 0 0 0 3.73 11.96 11.96 0 0 0 8.4 3.49 12.16 12.16 0 0 0 8.4-3.5 2.65 2.65 0 0 0 0-3.72 2.59 2.59 0 0 0-3.68 0Z" fill="#3E7BE4"/><circle cx="15" cy="16" r="3" fill="#3E7BE4"/></svg>