<svg viewBox="0 0 374 76" fill="none" xmlns="http://www.w3.org/2000/svg"><path d="M101.6 57.42a13.92 13.92 0 0 1-14.31-14.25A13.92 13.92 0 0 1 101.6 28.9c2.59 0 4.96.63 7.12 1.9a13.34 13.34 0 0 1 5.08 5.01l-7.07 4.1c-.98-2-2.72-3.02-5.24-3.02-1.77 0-3.22.6-4.38 1.79a6.06 6.06 0 0 0-1.72 4.48c0 1.83.57 3.34 1.72 4.53a5.93 5.93 0 0 0 4.38 1.73c2.56 0 4.3-1 5.24-3.02l7.07 4.05a13.33 13.33 0 0 1-5.02 5.07 14 14 0 0 1-7.18 1.9Zm23.82-22.95a6.56 6.56 0 0 1 3.03-3.94 9.63 9.63 0 0 1 5.07-1.4v9.18a8.12 8.12 0 0 0-5.56 1.02c-1.69.98-2.54 2.69-2.54 5.13v12.2h-8.1v-27h8.1v4.81Zm19.34-8.58a4.63 4.63 0 0 1-3.4 1.4 4.81 4.81 0 0 1-4.86-4.86c0-1.33.47-2.46 1.4-3.4a4.72 4.72 0 0 1 3.46-1.46c1.33 0 2.47.49 3.4 1.46a4.55 4.55 0 0 1 1.46 3.4c0 1.33-.49 2.48-1.46 3.46Zm-7.45 30.78v-27h8.1v27h-8.1Zm21.43-19.12c0 .54.45 1 1.35 1.35.94.33 2.05.67 3.35 1.03 1.3.32 2.6.75 3.89 1.3 1.3.53 2.4 1.43 3.3 2.7a7.42 7.42 0 0 1 1.4 4.64c0 2.91-1.08 5.13-3.24 6.64-2.16 1.48-4.83 2.21-8 2.21-5.68 0-9.55-2.14-11.6-6.42l7.01-4c.72 2.13 2.25 3.19 4.6 3.19 1.94 0 2.91-.56 2.91-1.68 0-.54-.47-.99-1.4-1.35-.9-.36-2-.7-3.3-1.02-1.3-.36-2.59-.81-3.89-1.35a8.76 8.76 0 0 1-3.34-2.65 7.03 7.03 0 0 1-1.35-4.37c0-2.81 1-4.99 3.02-6.54a12.2 12.2 0 0 1 7.56-2.32c2.23 0 4.27.5 6.1 1.51a11.2 11.2 0 0 1 4.43 4.27l-6.91 3.73c-.87-1.59-2.07-2.38-3.62-2.38-1.51 0-2.27.5-2.27 1.51Zm32.36-.1h-5.56V47c0 1.08.43 1.77 1.3 2.05.86.3 2.28.38 4.26.27v7.35c-5.15.54-8.71.05-10.7-1.46-1.97-1.55-2.96-4.29-2.96-8.2v-9.57h-4.32v-7.77h4.32v-5.13l8.1-2.43v7.56h5.56v7.77Zm12.57-11.56a4.63 4.63 0 0 1-3.4 1.4 4.81 4.81 0 0 1-4.87-4.86c0-1.33.47-2.46 1.4-3.4a4.72 4.72 0 0 1 3.46-1.46c1.34 0 2.47.49 3.4 1.46a4.55 4.55 0 0 1 1.47 3.4c0 1.33-.5 2.48-1.46 3.46Zm-7.45 30.78v-27h8.1v27h-8.1Zm34.97-27h8.1v27h-8.1v-2.54c-1.9 2.2-4.59 3.3-8.04 3.3-3.57 0-6.6-1.38-9.13-4.11a14.55 14.55 0 0 1-3.78-10.15c0-4 1.26-7.37 3.78-10.1a11.9 11.9 0 0 1 9.13-4.16c3.45 0 6.14 1.1 8.04 3.3v-2.54Zm-11.07 18.3a6.28 6.28 0 0 0 4.65 1.79c1.9 0 3.45-.6 4.64-1.79a6.5 6.5 0 0 0 1.78-4.8 6.5 6.5 0 0 0-1.78-4.8 6.28 6.28 0 0 0-4.64-1.8c-1.91 0-3.46.6-4.65 1.8a6.5 6.5 0 0 0-1.78 4.8c0 2.01.6 3.61 1.78 4.8Zm42.29-19.06c2.88 0 5.27 1 7.18 2.97 1.95 1.98 2.92 4.72 2.92 8.2v16.59h-8.1v-15.4c0-1.58-.45-2.78-1.35-3.61a4.53 4.53 0 0 0-3.35-1.3c-1.55 0-2.77.47-3.67 1.4-.9.94-1.35 2.33-1.35 4.16v14.75h-8.1v-27h8.1v2.53c1.62-2.2 4.2-3.29 7.72-3.29Zm24.68 8.64c0 .54.45 1 1.35 1.35.93.33 2.05.67 3.35 1.03 1.3.32 2.59.75 3.88 1.3 1.3.53 2.4 1.43 3.3 2.7a7.42 7.42 0 0 1 1.4 4.64c0 2.91-1.08 5.13-3.24 6.64-2.16 1.48-4.82 2.21-8 2.21-5.68 0-9.55-2.14-11.6-6.42l7.02-4c.72 2.13 2.25 3.19 4.59 3.19 1.94 0 2.92-.56 2.92-1.68 0-.54-.47-.99-1.4-1.35-.9-.36-2-.7-3.3-1.02-1.3-.36-2.6-.81-3.9-1.35a8.76 8.76 0 0 1-3.34-2.65 7.03 7.03 0 0 1-1.35-4.37c0-2.81 1-4.99 3.03-6.54a12.2 12.2 0 0 1 7.56-2.32c2.23 0 4.26.5 6.1 1.51a11.2 11.2 0 0 1 4.43 4.27l-6.92 3.73c-.86-1.59-2.07-2.38-3.62-2.38-1.5 0-2.26.5-2.26 1.51Zm40.97 15.77a13.9 13.9 0 0 1-10.15 4.1c-4 0-7.38-1.37-10.15-4.1a13.81 13.81 0 0 1-4.16-10.15c0-4 1.38-7.37 4.16-10.1a13.81 13.81 0 0 1 10.15-4.16c4 0 7.38 1.39 10.15 4.16a13.63 13.63 0 0 1 4.16 10.1c0 4-1.39 7.38-4.16 10.15Zm-14.58-5.56a6.01 6.01 0 0 0 4.43 1.78c1.76 0 3.24-.6 4.43-1.78a6.21 6.21 0 0 0 1.78-4.6c0-1.86-.6-3.4-1.78-4.58a6.01 6.01 0 0 0-4.43-1.78c-1.77 0-3.24.59-4.43 1.78a6.21 6.21 0 0 0-1.78 4.59c0 1.87.6 3.4 1.78 4.59Zm39.25-21.87c-3.35-.3-5.02.97-5.02 3.78h5.02v7.77h-5.02v19.23h-8.1V37.44h-3.62v-7.77h3.62c0-3.9 1.1-6.84 3.3-8.86 2.19-2.05 5.46-2.95 9.82-2.7v7.78Zm21.75 11.55h-5.56V47c0 1.08.43 1.77 1.3 2.05.85.3 2.28.38 4.26.27v7.35c-5.15.54-8.72.05-10.7-1.46-1.97-1.55-2.96-4.29-2.96-8.2v-9.57h-4.32v-7.77h4.31v-5.13l8.1-2.43v7.56h5.57v7.77Z" fill="#0D0D12"/><path d="M19.36 56.07a18 18 0 0 1-5.22-12.74 18.18 18.18 0 0 1 5.22-12.74 7.07 7.07 0 0 0-2.26-11.46 6.87 6.87 0 0 0-7.56 1.52 32.7 32.7 0 0 0-9.2 22.68 33.27 33.27 0 0 0 9.2 22.68 6.9 6.9 0 0 0 11.32-2.28 7.1 7.1 0 0 0-1.5-7.66Z" fill="#5FCEA4"/><path d="M19.36 30.6a17.75 17.75 0 0 1 12.58-5.3 17.58 17.58 0 0 1 12.58 5.3 6.9 6.9 0 0 0 9.82 0 7.07 7.07 0 0 0 0-9.95 31.9 31.9 0 0 0-22.4-9.32 32.44 32.44 0 0 0-22.4 9.32 7.07 7.07 0 0 0 0 9.94 6.9 6.9 0 0 0 9.82 0Z" fill="#F8DB53"/><path d="M44.52 56.07a17.75 17.75 0 0 1-12.58 5.29 17.57 17.57 0 0 1-12.58-5.29 6.9 6.9 0 0 0-9.82 0 7.07 7.07 0 0 0 0 9.94 31.9 31.9 0 0 0 22.4 9.32 32.44 32.44 0 0 0 22.4-9.32 7.07 7.07 0 0 0 0-9.94 6.9 6.9 0 0 0-9.82 0Z" fill="#3E7BE4"/><circle cx="32.33" cy="43.33" r="8" fill="#3E7BE4"/></svg>