<svg viewBox="0 0 221 65" fill="none" xmlns="http://www.w3.org/2000/svg" ><path d="M76.33 20.5h6.49l13.74 21.98V20.5h5.99v31.14h-6.44L82.32 29.7v21.93h-5.99V20.5ZM129.31 51.64h-5.58v-3.48c-1.27 2.45-3.85 3.83-7.12 3.83-5.17 0-8.53-3.65-8.53-8.9V29.22h5.58v12.72c0 3.07 1.9 5.2 4.77 5.2 3.13 0 5.3-2.4 5.3-5.69V29.22h5.58v22.42ZM148.72 51.28l-5.35-7.47-5.35 7.47h-5.94l8.25-11.7-7.62-10.72h6.08l4.58 6.46 4.54-6.46h6.12l-7.67 10.72 8.26 11.7h-5.9ZM165.96 22.46v6.76h6.35v4.58h-6.35v11.13c0 .37.15.73.42 1 .27.26.63.41 1.02.41h4.91v5.29h-3.67c-5 0-8.26-2.85-8.26-7.83v-10h-4.49v-4.58h2.82c1.31 0 2.08-.77 2.08-2.04v-4.72h5.17ZM186.37 44.59V20.5h5.99v22.24c0 6-2.95 8.9-7.94 8.9h-6.96v-5.29h7.12c.47 0 .93-.19 1.27-.52.34-.33.52-.78.52-1.24M195.94 41.18h5.77c.32 3.48 2.68 5.7 6.49 5.7 3.4 0 5.76-1.33 5.76-4.1 0-6.67-17.07-2.04-17.07-13.96 0-5.12 4.5-8.67 10.95-8.67 6.71 0 11.25 3.78 11.53 9.6h-5.74c-.27-2.7-2.44-4.53-5.8-4.53-3.13 0-5.08 1.42-5.08 3.6 0 6.9 17.29 1.74 17.29 13.88 0 5.78-4.86 9.3-11.84 9.3-7.21 0-11.93-4.27-12.25-10.81" fill="currentColor"/><path fill-rule="evenodd" clip-rule="evenodd" d="M29.75 14.26a4.37 4.37 0 0 0-7.53 0L3.97 45.64a4.32 4.32 0 0 0 3.76 6.48h14.25a4.17 4.17 0 0 1-.88-5.27l13.82-23.7-5.17-8.89Z" fill="#80EEC0"/><path d="M41.32 21.14a3.63 3.63 0 0 1 6.23 0l15.1 25.68a3.53 3.53 0 0 1-3.11 5.3H29.33a3.53 3.53 0 0 1-3.12-5.3l15.1-25.68Z" fill="#00DC82"/></svg>