<svg width="601" height="117" viewBox="0 0 601 117" fill="none" xmlns="http://www.w3.org/2000/svg">
<path d="M193.4 36.4C181.2 36.4 171.6 46.8 171.6 60.2C171.6 73.5 181.2 83.9 193.4 83.9C199.7 83.9 205.5 81.1 209.7 75.9C210 75.5 210.5 75.5 210.9 75.8L217.7 81.2C218.1 81.5 218.1 82 217.8 82.4C211.8 90.1 202.8 94.6 193.1 94.6C175.2 94.6 160.7 79.2 160.7 60.2C160.7 41.2 175.3 25.8 193.1 25.8C202.8 25.8 211.8 30.2 217.8 38C218.1 38.4 218 38.9 217.7 39.2L210.9 44.7C210.5 45 210 44.9 209.7 44.6C205.6 39.3 199.8 36.4 193.4 36.4ZM238.6 23.8H227C226.4 23.8 225.9 24.2 225.9 24.6V92.7C225.9 93.2 226.4 93.5 227 93.5H238.6C239.2 93.5 239.7 93.1 239.7 92.7V24.6C239.8 24.2 239.3 23.8 238.6 23.8ZM278.1 70.9C278.1 63.2 272.7 57.5 265.5 57.5C258.4 57.5 253 63.3 253 70.9C253 78.7 258.4 84.6 265.5 84.6C272.7 84.6 278.1 78.7 278.1 70.9ZM265.5 47.4C278.6 47.4 288.5 57.5 288.5 70.9C288.5 84.4 278.6 94.7 265.5 94.7C252.4 94.7 242.6 84.5 242.6 70.9C242.5 55.5 254.1 47.4 265.5 47.4ZM334.8 48.4H326.2C325.7 48.4 325.4 48.8 325.4 49.2V72C325.4 80.9 319.2 84.1 314 84.1C309.3 84.1 304.6 80.6 304.6 72.7V49.2C304.6 48.7 304.2 48.4 303.8 48.4H295.2C294.7 48.4 294.3 48.8 294.3 49.2V73.8C294.3 87.3 300.4 94.7 311.5 94.7C315.5 94.7 322.1 92.4 324.5 87.3L325.3 87.5V92.8C325.3 93.3 325.7 93.6 326.1 93.6H334.7C335.2 93.6 335.5 93.2 335.5 92.8V49.2C335.6 48.8 335.2 48.4 334.8 48.4ZM377.9 70.9C377.9 62.6 371.2 57.5 365 57.5C358 57.5 352.5 63.4 352.5 70.9C352.5 78.5 358 84.5 365 84.5C371.3 84.5 377.9 79.4 377.9 70.9ZM387.5 23.8C388 23.8 388.3 24.2 388.3 24.6V92.7C388.3 93.2 387.9 93.5 387.5 93.5H378.9C378.4 93.5 378.1 93.1 378.1 92.7V86.6L377.6 87.5C374.4 92.7 367.9 94.5 363.3 94.5C351.2 94.5 342.1 84.3 342.1 70.8C342.1 55.3 352.7 47.2 363.2 47.2C369.3 47.2 374.9 49.9 377.5 54.1L378 54.9V24.4C378 23.9 378.4 23.6 378.8 23.6H387.5V23.8ZM412.3 48.4H400.7C400.1 48.4 399.6 48.8 399.6 49.2V92.8C399.6 93.3 400.1 93.6 400.7 93.6H412.3C412.9 93.6 413.4 93.2 413.4 92.8V49.2C413.5 48.8 413 48.4 412.3 48.4ZM404.9 25.2C401 25.2 397.9 28.2 397.9 32.1C397.9 35.9 401 39 404.9 39C408.8 39 411.8 36 411.8 32.1C411.8 28.2 408.8 25.2 404.9 25.2ZM445.2 47.4C441.4 47.4 434.7 49.4 432.2 54.8L431.4 54.6V49.2C431.4 48.7 431 48.4 430.6 48.4H422C421.5 48.4 421.2 48.8 421.2 49.2V92.8C421.2 93.3 421.6 93.6 422 93.6H430.6C431.1 93.6 431.4 93.2 431.4 92.8V70C431.4 61.2 437.6 58 442.8 58C447.5 58 452.2 61.5 452.2 69.3V92.8C452.2 93.3 452.6 93.6 453 93.6H461.6C462.1 93.6 462.4 93.2 462.4 92.8V68.2C462.4 54.8 456.3 47.4 445.2 47.4ZM504.1 70.9C504.1 62.6 497.4 57.5 491.2 57.5C484.2 57.5 478.7 63.4 478.7 70.9C478.7 78.5 484.2 84.5 491.2 84.5C497.6 84.5 504.1 79.4 504.1 70.9ZM513.8 48.4C514.3 48.4 514.6 48.8 514.6 49.2V92.8C514.6 93.3 514.2 93.6 513.8 93.6H505.2C504.7 93.6 504.4 93.2 504.4 92.8V86.7L503.9 87.6C500.7 92.8 494.2 94.6 489.6 94.6C477.5 94.6 468.4 84.4 468.4 70.9C468.4 55.4 479 47.3 489.5 47.3C495.6 47.3 501.2 50 503.8 54.2L504.3 55V49.1C504.3 48.6 504.7 48.3 505.1 48.3H513.8V48.4ZM553 48.5C551.4 47.8 549.1 47.4 546.8 47.4C541.1 47.4 536.9 50.8 534.8 57.3L534 57.2V49.2C534 48.7 533.6 48.4 533.2 48.4H524.6C524.1 48.4 523.8 48.8 523.8 49.2V92.8C523.8 93.3 524.2 93.6 524.6 93.6H533.3C533.8 93.6 534.1 93.2 534.1 92.8V77.9C534.1 60.1 541.2 57.5 545.4 57.5C547.2 57.5 548.9 57.9 550.6 58.6C550.8 58.7 551.1 58.7 551.3 58.6C551.5 58.5 551.7 58.3 551.7 58L553.4 49.5C553.5 49.1 553.3 48.7 553 48.5ZM600.7 48.8C600.5 48.6 600.3 48.4 600 48.4H590.7C590.4 48.4 590 48.6 589.9 48.9L578.7 77.9L567.4 48.9C567.3 48.6 567 48.4 566.6 48.4H557.2C556.9 48.4 556.7 48.5 556.5 48.8C556.3 49 556.3 49.3 556.4 49.6L573.2 90.9L563.9 115C563.8 115.3 563.8 115.5 564 115.8C564.2 116 564.4 116.2 564.7 116.2H573.7C574 116.2 574.4 116 574.5 115.7L600.7 49.7C600.8 49.3 600.8 49 600.7 48.8ZM118.3 33.7C112.1 14 93.4 0 72.5 0C54.7 0 38.7 9.5 30.3 25C13.5 28 0.800049 43 0.800049 60.2C0.800049 74.2 9.00005 87.1 21.7001 92.9L22.6 93.3V83.1C18.7111 80.6773 15.504 77.3031 13.2818 73.2961C11.0596 69.2892 9.89571 64.7819 9.90005 60.2C9.95683 53.6252 12.4196 47.2989 16.8232 42.4164C21.2267 37.5338 27.266 34.433 33.8 33.7L36.3 33.4L37.4001 31.1C43.9001 17.5 57.4 9 72.5 9C90.3 9 106.3 21.6 110.4 39L111.2 42.5L114.7 42.6C126.7 42.8 136.5 52.7 136.5 64.7C136.5 73.2 131.6 80.1 123.3 83.6V93.3L123.9 93.1C137.3 88.7 145.6 77.9 145.6 64.7C145.6 48.9 133.6 35.7 118.3 33.7ZM54.9001 92.1C53.5655 90.7365 52.8125 88.9079 52.8001 87V57C52.8001 56.8 53 56.6 53.2 56.6H56.6C57 56.6 57.1001 56.2 56.9001 55.9L43.6 42.6C43.4 42.4 43.2 42.4 43 42.6L29.6 56C29.3 56.2 29.5001 56.7 29.9001 56.7H33.3C33.5 56.7 33.7001 56.9 33.7001 57.1V87.7C33.7001 91.7 36.9001 94.9 40.8001 94.9H56.5C56.9 94.9 57.0001 94.5 56.8001 94.2L54.9001 92.1ZM84.4001 92.1C83.0655 90.7365 82.3125 88.9079 82.3 87V64.7C82.3 64.5 82.5 64.3 82.7 64.3H86.1001C86.5001 64.3 86.6001 63.9 86.4001 63.6L73 50.3C72.8 50.1 72.6001 50.1 72.4001 50.3L59.1 63.6C58.8 63.8 59.0001 64.3 59.4001 64.3H62.8001C63.0001 64.3 63.2 64.5 63.2 64.7V87.6C63.2 91.6 66.4001 94.8 70.4001 94.8H86.1001C86.5001 94.8 86.6001 94.4 86.4001 94.1L84.4001 92.1ZM113.9 92.1C112.565 90.7365 111.813 88.9079 111.8 87V72.4C111.8 72.2 112 72 112.2 72H115.6C116 72 116.1 71.6 115.9 71.3L102.5 58C102.3 57.8 102.1 57.8 101.9 58L88.6001 71.3C88.3001 71.6 88.5001 72 88.9001 72H92.3C92.5 72 92.7 72.2 92.7 72.4V87.6C92.7 91.6 95.9001 94.8 99.9001 94.8H115.6C116 94.8 116.1 94.4 115.9 94.1L113.9 92.1Z" fill="#3448C5"/>
</svg>
